# xmcd CD database file
#
# Track frame offsets:
#	150
#	23255
#	46406
#	64155
#	83286
#	110338
#	127171
#	153394
#	179234
#	202287
#	228555
#	247087
#	266877
#
# Disc length: 3939 seconds
#
# Revision: 0
# Processed by: cddbd v1.5.2PL0 Copyright (c) Steve Scherf et al.
# Submitted via: CDex 1.51
#
DISCID=ba0f610d
DTITLE=Shloime Gertner - Nisim
DYEAR=2007
DGENRE=Jazz
TTITLE0=Nisim
TTITLE1=Kodesh
TTITLE2=Im Ein Ani Li
TTITLE3=Shmeichel
TTITLE4=Rachel
TTITLE5=Rak Rak
TTITLE6=Hashem Tivneh
TTITLE7=Mehaira
TTITLE8=Yishoma
TTITLE9=Hoshivo
TTITLE10=Lefichach
TTITLE11=Yehallelu
TTITLE12=Shma Bni
EXTD=YEAR: 2007
EXTT0=
EXTT1=
EXTT2=
EXTT3=
EXTT4=
EXTT5=
EXTT6=
EXTT7=
EXTT8=
EXTT9=
EXTT10=
EXTT11=
EXTT12=
PLAYORDER=
